<svg id="fix_1" enable-background="new 0 0 24 24" height="512" viewBox="0 0 24 24" width="512" xmlns="http://www.w3.org/2000/svg"><path d="m16.5 24h-9c-.182 0-.349-.099-.438-.258-.088-.159-.083-.353.014-.507l2.036-3.258c.221-.353.285-.787.175-1.189l-2.95-10.825c-.093-.259-.174-.556-.23-.846-.002-.011-.003-.022-.005-.033-.068-.377-.102-.731-.102-1.084 0-3.261 2.652-5.953 5.913-6 2.647-.033 4.924 1.617 5.795 4.218.307.916.371 1.878.192 2.86-.002.029-.007.058-.014.086-.053.267-.126.526-.213.78l-2.959 10.843c-.11.402-.046.836.175 1.189l2.036 3.258c.097.154.102.349.014.507-.09.16-.257.259-.439.259zm-8.098-1h7.196l-1.558-2.493c-.369-.589-.475-1.312-.292-1.983l2.969-10.875c.082-.239.142-.453.186-.672.001-.011.003-.021.005-.032.161-.843.113-1.631-.148-2.41-.73-2.179-2.641-3.595-4.833-3.535-2.717.04-4.927 2.282-4.927 5 0 .293.028.591.087.91.003.017.005.033.007.05.057.27.12.491.197.705l2.962 10.859c.183.671.076 1.394-.292 1.982z"/><path d="m14 10c-1.103 0-2-.897-2-2s.897-2 2-2 2 .897 2 2-.897 2-2 2zm0-3c-.551 0-1 .449-1 1s.449 1 1 1 1-.449 1-1-.449-1-1-1z"/><path d="m15.5 8.5c-.092 0-.185-.025-.268-.078-.233-.148-.302-.457-.154-.69l1.908-3c.148-.232.457-.302.69-.154s.302.457.154.69l-1.908 3c-.095.15-.257.232-.422.232z"/><path d="m9.663 20.5c-.09 0-.181-.024-.263-.075-.235-.145-.307-.454-.162-.688 4.134-6.673.353-14.436.314-14.514-.113-.227-.038-.503.175-.641.212-.139.495-.097.658.098l2.5 3c.177.212.148.528-.064.705-.213.177-.527.148-.705-.064l-.646-.777c.853 3.023 1.511 8.05-1.382 12.719-.094.153-.258.237-.425.237z"/><path d="m14.914 21.496h-5.85c-.276 0-.5-.224-.5-.5s.224-.5.5-.5h5.85c.276 0 .5.224.5.5s-.224.5-.5.5z"/><path d="m11.063 8.5c-3.342 0-4.86-3.153-4.923-3.288-.117-.25-.01-.546.239-.664.25-.117.547-.01.666.238.052.111 1.319 2.714 4.018 2.714.276 0 .5.224.5.5s-.224.5-.5.5z"/></svg>